<svg width="512" height="512" viewBox="0 0 512 512" fill="none" xmlns="http://www.w3.org/2000/svg">
  <defs>
    <linearGradient id="bg" x1="84" y1="48" x2="432" y2="464" gradientUnits="userSpaceOnUse">
      <stop stop-color="#29433A" />
      <stop offset="1" stop-color="#101418" />
    </linearGradient>
    <linearGradient id="glow" x1="124" y1="88" x2="372" y2="272" gradientUnits="userSpaceOnUse">
      <stop stop-color="#F5F1E8" stop-opacity="0.26" />
      <stop offset="1" stop-color="#F5F1E8" stop-opacity="0" />
    </linearGradient>
  </defs>

  <rect x="12" y="12" width="488" height="488" rx="150" fill="url(#bg)" />
  <rect x="20" y="20" width="472" height="472" rx="142" stroke="#F5F1E8" stroke-opacity="0.12" stroke-width="8" />
  <path d="M76 86C131 56 192 40 256 40C320 40 381 56 436 86V188H76V86Z" fill="url(#glow)" />

  <path
    d="M128 328C167 290 207 274 238 234C271 193 307 168 364 168H388"
    stroke="#F5F1E8"
    stroke-width="40"
    stroke-linecap="round"
    stroke-linejoin="round"
  />

  <circle cx="160" cy="210" r="22" fill="#D7C5A6" />
  <circle cx="248" cy="160" r="18" fill="#D7C5A6" />
  <circle cx="310" cy="252" r="18" fill="#D7C5A6" />

  <circle cx="388" cy="388" r="70" fill="#9A5F44" />
  <circle cx="388" cy="388" r="42" fill="#D7C5A6" fill-opacity="0.2" />
</svg>
